<svg width="226" height="40" viewBox="0 0 226 40" fill="none" xmlns="http://www.w3.org/2000/svg">
<g clip-path="url(#clip0_483_2602)">
<path d="M39.6617 12.5801H53.5443L52.4702 19.2676H46.077L45.481 22.9534H51.1386L50.1307 29.4276H44.4511L43.7816 33.5843H50.1748L49.1522 39.9408H35.2695L39.6617 12.5801Z" fill="#FD8B1C"/>
<path d="M93.6929 12.5801H107.576L106.509 19.2676H100.108L99.5197 22.9534H105.177L104.162 29.4276H98.4823L97.8202 33.5843H104.213L103.191 39.9408H89.3008L93.6929 12.5801Z" fill="#FD8B1C"/>
<path d="M56.1765 39.9408L59.4503 19.2676H55.3672L56.4413 12.5801H72.1632L71.0891 19.2676H66.8441L63.5776 39.9408H56.1765Z" fill="#FD8B1C"/>
<path d="M74.8214 39.9408L78.0953 19.2676H74.0195L75.0863 12.5801H90.8082L89.7341 19.2676H85.4964L82.2299 39.9408H74.8214Z" fill="#FD8B1C"/>
<path d="M124.136 12.5801L121.84 26.9483L118.956 12.5801H111.916L107.523 39.9408H114.697L116.676 27.5148L119.78 39.9408H126.791L131.184 12.5801H124.136Z" fill="#FD8B1C"/>
<path d="M142.108 39.9408L143.8 29.4276H140.343L138.658 39.9408H131.176L135.583 12.5801H143.043L141.38 22.9534H144.838L146.508 12.5801H153.997L149.605 39.9408H142.108Z" fill="#FD8B1C"/>
<path d="M175.883 39.9408L180.268 12.5801H187.669L184.351 33.577H189.913L188.883 39.9408H175.883Z" fill="#FD8B1C"/>
<path d="M191.789 39.9408L196.166 12.5801H203.568L200.25 33.577H205.804L204.782 39.9408H191.789Z" fill="#FD8B1C"/>
<path d="M225.83 0H33.0991L24.9844 22.7405L23.6822 12.5805H16.5827L12.8895 22.792L11.6535 0H3.71528H2.50874L0 6.61394L4.10521 6.6213L6.05481 39.9411H6.69487H6.90822H13.8753L18.2895 27.6182L18.8486 39.9411H26.75L38.4918 6.6213H224.8L225.83 0Z" fill="#FD8B1C"/>
<path d="M212.177 15.3172C207.711 20.6658 211.448 25.6391 212.655 27.2503C212.795 27.4342 212.949 27.6328 213.111 27.8462C213.95 28.935 214.671 30.0459 214.891 30.9509C214.913 31.0318 214.928 31.1201 214.943 31.2083C214.958 31.2966 214.958 31.3776 214.958 31.4658C214.958 31.5321 214.958 31.5909 214.958 31.6571C214.958 31.7381 214.943 31.7969 214.921 31.8778C214.906 31.9293 214.899 31.9808 214.877 32.0397C214.656 32.7312 214.045 33.2095 213.273 33.4228C212.353 33.7318 211.022 33.6582 208.734 33.5847L207.711 39.9411C209.661 40.0147 211.382 40.0073 212.979 39.9779C216.002 39.7572 218.761 39.1245 221.005 35.6961C224.205 30.789 220.468 25.9407 218.872 23.8661C218.732 23.6821 218.599 23.5129 218.474 23.3511C217.886 22.5565 217.518 21.9606 217.349 21.453C217.297 21.3132 217.253 21.1734 217.224 21.0336C217.143 20.6878 217.143 20.3347 217.253 19.9963C217.474 19.3268 218.04 18.8486 218.776 18.6279C218.908 18.5911 219.033 18.5617 219.166 18.5396C219.166 18.5396 219.173 18.5396 219.181 18.5396C219.696 18.444 220.188 18.4366 220.652 18.4807C221.137 18.5102 221.711 18.6205 222.359 18.8559C222.653 18.9663 222.844 19.0472 222.859 19.0546L222.881 19.0693L223.86 12.8159C221.343 11.8742 215.833 10.9545 212.191 15.3246" fill="#FD8B1C"/>
<path d="M162.986 29.4276L165.914 19.2676V29.4276H162.986ZM173.256 39.9408L171.799 12.5801H162.118L152.156 39.9408H159.66L160.948 35.9385H165.759L165.7 39.9408H173.241H173.256Z" fill="#FD8B1C"/>
</g>
<defs>
<clipPath id="clip0_483_2602">
<rect width="225.83" height="40" fill="white"/>
</clipPath>
</defs>
</svg>
