<svg preserveAspectRatio="none" width="100%" height="100%" overflow="visible" style="display: block;" viewBox="0 0 20.85 20.85" fill="none" xmlns="http://www.w3.org/2000/svg">
<path id="Vector" d="M1.4 20.85L0 19.45L2.4 17.025C1.86667 16.4917 1.425 15.9833 1.075 15.5C0.725 15.0167 0.55 14.3583 0.55 13.525C0.55 12.9917 0.65 12.4833 0.85 12C1.05 11.5167 1.34167 11.0833 1.725 10.7L2.875 9.575L4 10.7C4.48333 11.1667 4.825 11.7333 5.025 12.4C5.225 13.0667 5.23333 13.725 5.05 14.375L6.625 12.8C6.09167 12.25 5.65 11.7333 5.3 11.25C4.95 10.7667 4.775 10.1083 4.775 9.275C4.775 8.74167 4.87083 8.23333 5.0625 7.75C5.25417 7.26667 5.54167 6.83333 5.925 6.45L7.075 5.325L8.2 6.45C8.68333 6.93333 9.025 7.5125 9.225 8.1875C9.425 8.8625 9.43333 9.525 9.25 10.175L10.55 8.875C10.05 8.325 9.60833 7.80417 9.225 7.3125C8.84167 6.82083 8.65 6.175 8.65 5.375C8.65 4.84167 8.75833 4.32083 8.975 3.8125C9.19167 3.30417 9.49167 2.85833 9.875 2.475L12.35 0L13.75 1.4L12.35 2.825C12.7333 3.29167 13.0042 3.8375 13.1625 4.4625C13.3208 5.0875 13.3083 5.69167 13.125 6.275L18.575 0.825L19.975 2.25L14.475 7.75C15.075 7.56667 15.6917 7.54583 16.325 7.6875C16.9583 7.82917 17.5167 8.09167 18 8.475L19.4 7.05L20.85 8.5L18.35 11.025C17.9667 11.4083 17.5292 11.7 17.0375 11.9C16.5458 12.1 16.0333 12.2 15.5 12.2C14.8 12.2 14.1583 12.0083 13.575 11.625C12.9917 11.2417 12.45 10.8 11.95 10.3L10.575 11.675C11.2417 11.4583 11.925 11.45 12.625 11.65C13.325 11.85 13.925 12.1917 14.425 12.675L15.55 13.825L14.425 14.95C14.0417 15.3333 13.6042 15.625 13.1125 15.825C12.6208 16.025 12.1083 16.125 11.575 16.125C10.875 16.125 10.2375 15.9292 9.6625 15.5375C9.0875 15.1458 8.54167 14.7083 8.025 14.225L6.3 15.95C6.98333 15.7167 7.67917 15.7 8.3875 15.9C9.09583 16.1 9.7 16.4417 10.2 16.925L11.35 18.075L10.225 19.2C9.84167 19.5833 9.40417 19.875 8.9125 20.075C8.42083 20.275 7.90833 20.375 7.375 20.375C6.65833 20.375 6.0125 20.1792 5.4375 19.7875C4.8625 19.3958 4.31667 18.95 3.8 18.45L1.4 20.85Z" fill="currentColor"/>
</svg>
