<svg preserveAspectRatio="none" width="100%" height="100%" overflow="visible" style="display: block;" viewBox="0 0 19.5 20" fill="none" xmlns="http://www.w3.org/2000/svg">
<path id="Vector" d="M6.025 16.9C6.30833 17.0333 6.56667 17.1583 6.8 17.275C7.03333 17.3917 7.26667 17.5 7.5 17.6V19.7C7.26667 19.6167 7.025 19.5292 6.775 19.4375C6.525 19.3458 6.25833 19.2333 5.975 19.1C5.225 19.4 4.4625 19.625 3.6875 19.775C2.9125 19.925 2.11667 20 1.3 20H0.5V18H1.3C2.1 18 2.8625 17.9125 3.5875 17.7375C4.3125 17.5625 5.125 17.2833 6.025 16.9ZM10.5 20V18.225C10.1833 18.0417 9.9375 17.8 9.7625 17.5C9.5875 17.2 9.5 16.8667 9.5 16.5V10.5C9.5 9.63333 9.9 9 10.7 8.6C11.5 8.2 12.7667 8 14.5 8C16.3 8 17.5833 8.19167 18.35 8.575C19.1167 8.95833 19.5 9.6 19.5 10.5V16.5C19.5 16.85 19.4125 17.1792 19.2375 17.4875C19.0625 17.7958 18.8167 18.0417 18.5 18.225V20H16.5V18.5H12.5V20H10.5ZM12.375 16.75C12.625 16.75 12.8333 16.6667 13 16.5C13.1667 16.3333 13.25 16.125 13.25 15.875C13.25 15.625 13.1667 15.4167 13 15.25C12.8333 15.0833 12.625 15 12.375 15C12.125 15 11.9167 15.0833 11.75 15.25C11.5833 15.4167 11.5 15.625 11.5 15.875C11.5 16.1083 11.5875 16.3125 11.7625 16.4875C11.9375 16.6625 12.1417 16.75 12.375 16.75ZM16.625 16.75C16.875 16.75 17.0833 16.6667 17.25 16.5C17.4167 16.3333 17.5 16.125 17.5 15.875C17.5 15.625 17.4167 15.4167 17.25 15.25C17.0833 15.0833 16.875 15 16.625 15C16.375 15 16.1667 15.0833 16 15.25C15.8333 15.4167 15.75 15.625 15.75 15.875C15.75 16.1083 15.8375 16.3125 16.0125 16.4875C16.1875 16.6625 16.3917 16.75 16.625 16.75ZM11 13H18V11H11V13ZM7 2V0H12V2H16.5V6.1C16.2 6.06667 15.8875 6.04167 15.5625 6.025C15.2375 6.00833 14.8833 6 14.5 6V4H4.5V6.825L9.5 5.5L12.025 6.175C10.5583 6.425 9.44167 6.90417 8.675 7.6125C7.90833 8.32083 7.51667 9.45 7.5 11V15.4C6.98333 15.1 6.5625 14.7917 6.2375 14.475L5.75 14C5.28333 14.45 4.775 14.8333 4.225 15.15C3.675 15.4667 3.08333 15.6917 2.45 15.825L0 8L2.5 7.35V2H7Z" fill="currentColor"/>
</svg>
