<svg preserveAspectRatio="none" width="100%" height="100%" overflow="visible" style="display: block;" viewBox="0 0 22.975 16" fill="none" xmlns="http://www.w3.org/2000/svg">
<path id="Vector" d="M2.975 16C2.14167 16 1.4375 15.7083 0.8625 15.125C0.2875 14.5417 0 13.8333 0 13V5H7V0H12L15 3V7H15.975V5L18.5 2.5L22.975 11H15.975V9H15V10.75C15.3333 11.0333 15.5833 11.3708 15.75 11.7625C15.9167 12.1542 16 12.5667 16 13C16 13.8333 15.7083 14.5417 15.125 15.125C14.5417 15.7083 13.8333 16 13 16C12.3667 16 11.7917 15.8167 11.275 15.45C10.7583 15.0833 10.3833 14.6 10.15 14H5.825C5.59167 14.6 5.21667 15.0833 4.7 15.45C4.18333 15.8167 3.60833 16 2.975 16ZM2.975 14C3.25833 14 3.5 13.9042 3.7 13.7125C3.9 13.5208 4 13.2833 4 13C4 12.7167 3.90417 12.4792 3.7125 12.2875C3.52083 12.0958 3.28333 12 3 12C2.71667 12 2.47917 12.0958 2.2875 12.2875C2.09583 12.4792 2 12.7167 2 13C2 13.2833 2.09167 13.5208 2.275 13.7125C2.45833 13.9042 2.69167 14 2.975 14ZM13.7125 13.7125C13.9042 13.5208 14 13.2833 14 13C14 12.7167 13.9042 12.4792 13.7125 12.2875C13.5208 12.0958 13.2833 12 13 12C12.7167 12 12.4792 12.0958 12.2875 12.2875C12.0958 12.4792 12 12.7167 12 13C12 13.2833 12.0958 13.5208 12.2875 13.7125C12.4792 13.9042 12.7167 14 13 14C13.2833 14 13.5208 13.9042 13.7125 13.7125ZM19.675 9L18 5.825V9H19.675ZM9 7H13V3.825L11.15 2H9V7Z" fill="currentColor"/>
</svg>
