<svg preserveAspectRatio="none" width="100%" height="100%" overflow="visible" style="display: block;" viewBox="0 0 22 19" fill="none" xmlns="http://www.w3.org/2000/svg">
<path id="Vector" d="M20 18V2H2V10H0V0H22V18H20ZM5.175 9.825C4.39167 9.04167 4 8.1 4 7C4 5.9 4.39167 4.95833 5.175 4.175C5.95833 3.39167 6.9 3 8 3C9.1 3 10.0417 3.39167 10.825 4.175C11.6083 4.95833 12 5.9 12 7C12 8.1 11.6083 9.04167 10.825 9.825C10.0417 10.6083 9.1 11 8 11C6.9 11 5.95833 10.6083 5.175 9.825ZM0 19V16.2C0 15.6333 0.145833 15.1125 0.4375 14.6375C0.729167 14.1625 1.11667 13.8 1.6 13.55C2.63333 13.0333 3.68333 12.6458 4.75 12.3875C5.81667 12.1292 6.9 12 8 12C9.1 12 10.1833 12.1292 11.25 12.3875C12.3167 12.6458 13.3667 13.0333 14.4 13.55C14.8833 13.8 15.2708 14.1625 15.5625 14.6375C15.8542 15.1125 16 15.6333 16 16.2V19H0Z" fill="currentColor"/>
</svg>
