<svg width="40" height="40" viewBox="0 0 40 40" fill="none" xmlns="http://www.w3.org/2000/svg">
<circle cx="20" cy="20" r="20" fill="#84172B"/>
<path d="M8 19.999C8 25.939 12.32 30.859 18.02 31.879L18.0909 31.821C18.0873 31.8203 18.0836 31.8197 18.08 31.819V23.359H15.08V19.999H18.08V17.359C18.08 14.359 20 12.679 22.76 12.679C23.6 12.679 24.56 12.799 25.4 12.919V15.979H23.84C22.4 15.979 22.04 16.699 22.04 17.659V19.999H25.22L24.68 23.359H22.04V31.819C22.0035 31.8257 21.9669 31.8321 21.9304 31.8384L21.98 31.879C27.68 30.859 32 25.939 32 19.999C32 13.399 26.6 7.99902 20 7.99902C13.4 7.99902 8 13.399 8 19.999Z" fill="#FEF4F2"/>
</svg>
