<svg preserveAspectRatio="none" width="100%" height="100%" overflow="visible" style="display: block;" viewBox="0 0 20 18" fill="none" xmlns="http://www.w3.org/2000/svg">
<path id="Vector" d="M12.8 11.525C13.6167 10.875 14.1417 10.0333 14.375 9H12.3C12.1 9.45 11.7917 9.8125 11.375 10.0875C10.9583 10.3625 10.5 10.5 10 10.5C9.5 10.5 9.04167 10.3625 8.625 10.0875C8.20833 9.8125 7.9 9.45 7.7 9H5.625C5.85833 10.0333 6.38333 10.875 7.2 11.525C8.01667 12.175 8.95 12.5 10 12.5C11.05 12.5 11.9833 12.175 12.8 11.525ZM8.1375 7.1375C8.37917 6.89583 8.5 6.6 8.5 6.25C8.5 5.9 8.37917 5.60417 8.1375 5.3625C7.89583 5.12083 7.6 5 7.25 5C6.9 5 6.60417 5.12083 6.3625 5.3625C6.12083 5.60417 6 5.9 6 6.25C6 6.6 6.12083 6.89583 6.3625 7.1375C6.60417 7.37917 6.9 7.5 7.25 7.5C7.6 7.5 7.89583 7.37917 8.1375 7.1375ZM13.6375 7.1375C13.8792 6.89583 14 6.6 14 6.25C14 5.9 13.8792 5.60417 13.6375 5.3625C13.3958 5.12083 13.1 5 12.75 5C12.4 5 12.1042 5.12083 11.8625 5.3625C11.6208 5.60417 11.5 5.9 11.5 6.25C11.5 6.6 11.6208 6.89583 11.8625 7.1375C12.1042 7.37917 12.4 7.5 12.75 7.5C13.1 7.5 13.3958 7.37917 13.6375 7.1375ZM10 18L8.55 16.75C6.86667 15.2833 5.475 14.0167 4.375 12.95C3.275 11.8833 2.4 10.925 1.75 10.075C1.1 9.225 0.645833 8.44167 0.3875 7.725C0.129167 7.00833 0 6.26667 0 5.5C0 3.93333 0.525 2.625 1.575 1.575C2.625 0.525 3.93333 0 5.5 0C6.36667 0 7.19167 0.183333 7.975 0.55C8.75833 0.916667 9.43333 1.43333 10 2.1C10.5667 1.43333 11.2417 0.916667 12.025 0.55C12.8083 0.183333 13.6333 0 14.5 0C16.0667 0 17.375 0.525 18.425 1.575C19.475 2.625 20 3.93333 20 5.5C20 6.26667 19.8708 7.00833 19.6125 7.725C19.3542 8.44167 18.9 9.225 18.25 10.075C17.6 10.925 16.725 11.8833 15.625 12.95C14.525 14.0167 13.1333 15.2833 11.45 16.75L10 18Z" fill="currentColor"/>
</svg>
