<svg preserveAspectRatio="none" width="100%" height="100%" overflow="visible" style="display: block;" viewBox="0 0 20 22" fill="none" xmlns="http://www.w3.org/2000/svg">
<path id="Vector" d="M4 13L5.925 8H3L1.675 10H0L1 6.5L0 3H1.675L3 5H5.925L4 0H6L9.45 5H12.5C12.9167 5 13.2708 5.14583 13.5625 5.4375C13.8542 5.72917 14 6.08333 14 6.5C14 6.91667 13.8542 7.27083 13.5625 7.5625C13.2708 7.85417 12.9167 8 12.5 8H9.45L6 13H4ZM14 22L10.55 17H7.5C7.08333 17 6.72917 16.8542 6.4375 16.5625C6.14583 16.2708 6 15.9167 6 15.5C6 15.0833 6.14583 14.7292 6.4375 14.4375C6.72917 14.1458 7.08333 14 7.5 14H10.55L14 9H16L14.075 14H17L18.325 12H20L19 15.5L20 19H18.325L17 17H14.075L16 22H14Z" fill="currentColor"/>
</svg>
