<svg width="40" height="40" viewBox="0 0 40 40" fill="none" xmlns="http://www.w3.org/2000/svg">
<circle cx="20" cy="20" r="20" fill="#84172B"/>
<path fill-rule="evenodd" clip-rule="evenodd" d="M28.5556 31.001H11.4444C10.0944 31.001 9 29.9066 9 28.5565V11.4454C9 10.0954 10.0944 9.00098 11.4444 9.00098H28.5556C29.9056 9.00098 31 10.0954 31 11.4454V28.5565C31 29.9066 29.9056 31.001 28.5556 31.001ZM24.6799 27.9453H27.9446V21.2387C27.9446 18.4011 26.3361 17.0291 24.0893 17.0291C21.8414 17.0291 20.8955 18.7795 20.8955 18.7795V17.3527H17.7492V27.9453H20.8955V22.3849C20.8955 20.895 21.5813 20.0084 22.894 20.0084C24.1006 20.0084 24.6799 20.8603 24.6799 22.3849V27.9453ZM12.0557 14.0111C12.0557 15.0905 12.9241 15.9657 13.9958 15.9657C15.0675 15.9657 15.9353 15.0905 15.9353 14.0111C15.9353 12.9316 15.0675 12.0564 13.9958 12.0564C12.9241 12.0564 12.0557 12.9316 12.0557 14.0111ZM15.6519 27.9453H12.3712V17.3527H15.6519V27.9453Z" fill="#FEF4F2"/>
</svg>
