<svg preserveAspectRatio="none" width="100%" height="100%" overflow="visible" style="display: block;" viewBox="0 0 19.55 20" fill="none" xmlns="http://www.w3.org/2000/svg">
<path id="Vector" d="M12.5 18.925L8.25 14.675L9.65 13.275L12.5 16.125L18.15 10.475L19.55 11.875L12.5 18.925ZM18 9H16V4H14V7H4V4H2V18H8V20H0V2H6.175C6.35833 1.41667 6.71667 0.9375 7.25 0.5625C7.78333 0.1875 8.36667 0 9 0C9.66667 0 10.2625 0.1875 10.7875 0.5625C11.3125 0.9375 11.6667 1.41667 11.85 2H18V9ZM9.7125 3.7125C9.90417 3.52083 10 3.28333 10 3C10 2.71667 9.90417 2.47917 9.7125 2.2875C9.52083 2.09583 9.28333 2 9 2C8.71667 2 8.47917 2.09583 8.2875 2.2875C8.09583 2.47917 8 2.71667 8 3C8 3.28333 8.09583 3.52083 8.2875 3.7125C8.47917 3.90417 8.71667 4 9 4C9.28333 4 9.52083 3.90417 9.7125 3.7125Z" fill="currentColor"/>
</svg>
