<svg preserveAspectRatio="none" width="100%" height="100%" overflow="visible" style="display: block;" viewBox="0 0 18 20" fill="none" xmlns="http://www.w3.org/2000/svg">
<path id="Vector" d="M7.6 15.05L14.65 8L13.25 6.6L7.6 12.25L4.75 9.4L3.35 10.8L7.6 15.05ZM0 20V2H6.2C6.41667 1.4 6.77917 0.916667 7.2875 0.55C7.79583 0.183333 8.36667 0 9 0C9.63333 0 10.2042 0.183333 10.7125 0.55C11.2208 0.916667 11.5833 1.4 11.8 2H18V20H0ZM9.5375 3.0375C9.67917 2.89583 9.75 2.71667 9.75 2.5C9.75 2.28333 9.67917 2.10417 9.5375 1.9625C9.39583 1.82083 9.21667 1.75 9 1.75C8.78333 1.75 8.60417 1.82083 8.4625 1.9625C8.32083 2.10417 8.25 2.28333 8.25 2.5C8.25 2.71667 8.32083 2.89583 8.4625 3.0375C8.60417 3.17917 8.78333 3.25 9 3.25C9.21667 3.25 9.39583 3.17917 9.5375 3.0375Z" fill="currentColor"/>
</svg>
