<svg preserveAspectRatio="none" width="100%" height="100%" overflow="visible" style="display: block;" viewBox="0 0 20 20" fill="none" xmlns="http://www.w3.org/2000/svg">
<path id="Vector" d="M10 20C9.6 20 9.21667 19.925 8.85 19.775C8.48333 19.625 8.15833 19.4083 7.875 19.125C7.39167 18.6417 6.975 18.325 6.625 18.175C6.275 18.025 5.75 17.95 5.05 17.95C4.21667 17.95 3.50833 17.6583 2.925 17.075C2.34167 16.4917 2.05 15.7833 2.05 14.95C2.05 14.25 1.975 13.725 1.825 13.375C1.675 13.025 1.35833 12.6083 0.875 12.125C0.591667 11.8417 0.375 11.5167 0.225 11.15C0.075 10.7833 0 10.4 0 10C0 9.6 0.075 9.21667 0.225 8.85C0.375 8.48333 0.591667 8.15833 0.875 7.875C1.35833 7.39167 1.675 6.975 1.825 6.625C1.975 6.275 2.05 5.75 2.05 5.05C2.05 4.21667 2.34167 3.50833 2.925 2.925C3.50833 2.34167 4.21667 2.05 5.05 2.05C5.75 2.05 6.275 1.975 6.625 1.825C6.975 1.675 7.39167 1.35833 7.875 0.875C8.15833 0.591667 8.48333 0.375 8.85 0.225C9.21667 0.075 9.6 0 10 0C10.4 0 10.7833 0.075 11.15 0.225C11.5167 0.375 11.8417 0.591667 12.125 0.875C12.6083 1.35833 13.025 1.675 13.375 1.825C13.725 1.975 14.25 2.05 14.95 2.05C15.7833 2.05 16.4917 2.34167 17.075 2.925C17.6583 3.50833 17.95 4.21667 17.95 5.05C17.95 5.75 18.025 6.275 18.175 6.625C18.325 6.975 18.6417 7.39167 19.125 7.875C19.4083 8.15833 19.625 8.48333 19.775 8.85C19.925 9.21667 20 9.6 20 10C20 10.4 19.925 10.7833 19.775 11.15C19.625 11.5167 19.4083 11.8417 19.125 12.125C18.6417 12.6083 18.325 13.025 18.175 13.375C18.025 13.725 17.95 14.25 17.95 14.95C17.95 15.7833 17.6583 16.4917 17.075 17.075C16.4917 17.6583 15.7833 17.95 14.95 17.95C14.25 17.95 13.725 18.025 13.375 18.175C13.025 18.325 12.6083 18.6417 12.125 19.125C11.8417 19.4083 11.5167 19.625 11.15 19.775C10.7833 19.925 10.4 20 10 20ZM12.5 14C12.9167 14 13.2708 13.8542 13.5625 13.5625C13.8542 13.2708 14 12.9167 14 12.5C14 12.0833 13.8542 11.7292 13.5625 11.4375C13.2708 11.1458 12.9167 11 12.5 11C12.0833 11 11.7292 11.1458 11.4375 11.4375C11.1458 11.7292 11 12.0833 11 12.5C11 12.9167 11.1458 13.2708 11.4375 13.5625C11.7292 13.8542 12.0833 14 12.5 14ZM7.45 13.95L13.95 7.45L12.55 6.05L6.05 12.55L7.45 13.95ZM8.5625 8.5625C8.85417 8.27083 9 7.91667 9 7.5C9 7.08333 8.85417 6.72917 8.5625 6.4375C8.27083 6.14583 7.91667 6 7.5 6C7.08333 6 6.72917 6.14583 6.4375 6.4375C6.14583 6.72917 6 7.08333 6 7.5C6 7.91667 6.14583 8.27083 6.4375 8.5625C6.72917 8.85417 7.08333 9 7.5 9C7.91667 9 8.27083 8.85417 8.5625 8.5625Z" fill="currentColor"/>
</svg>
