<svg preserveAspectRatio="none" width="100%" height="100%" overflow="visible" style="display: block;" viewBox="0 0 22.425 20.925" fill="none" xmlns="http://www.w3.org/2000/svg">
<path id="Vector" d="M13.3375 14.5625C13.9625 14.0875 14.4167 13.475 14.7 12.725H7.7C7.98333 13.475 8.4375 14.0875 9.0625 14.5625C9.6875 15.0375 10.4 15.275 11.2 15.275C12 15.275 12.7125 15.0375 13.3375 14.5625ZM9.7625 10.8375C10.0542 10.5458 10.2 10.1917 10.2 9.775C10.2 9.35833 10.0542 9.00417 9.7625 8.7125C9.47083 8.42083 9.11667 8.275 8.7 8.275C8.28333 8.275 7.92917 8.42083 7.6375 8.7125C7.34583 9.00417 7.2 9.35833 7.2 9.775C7.2 10.1917 7.34583 10.5458 7.6375 10.8375C7.92917 11.1292 8.28333 11.275 8.7 11.275C9.11667 11.275 9.47083 11.1292 9.7625 10.8375ZM14.7625 10.8375C15.0542 10.5458 15.2 10.1917 15.2 9.775C15.2 9.35833 15.0542 9.00417 14.7625 8.7125C14.4708 8.42083 14.1167 8.275 13.7 8.275C13.2833 8.275 12.9292 8.42083 12.6375 8.7125C12.3458 9.00417 12.2 9.35833 12.2 9.775C12.2 10.1917 12.3458 10.5458 12.6375 10.8375C12.9292 11.1292 13.2833 11.275 13.7 11.275C14.1167 11.275 14.4708 11.1292 14.7625 10.8375ZM6.825 5.675L11.2 0L15.575 5.675L22.425 7.975L18.1 14.1L18.275 20.925L11.2 18.95L4.125 20.925L4.3 14.075L0 7.975L6.825 5.675Z" fill="currentColor"/>
</svg>
