<svg preserveAspectRatio="none" width="100%" height="100%" overflow="visible" style="display: block;" viewBox="0 0 22.65 19.775" fill="none" xmlns="http://www.w3.org/2000/svg">
<path id="Vector" d="M3.35 19.775L0 7.775H6.075L11.3 0L16.525 7.775H22.65L19.3 19.775H3.35ZM12.7375 15.1875C13.1292 14.7958 13.325 14.325 13.325 13.775C13.325 13.225 13.1292 12.7542 12.7375 12.3625C12.3458 11.9708 11.875 11.775 11.325 11.775C10.775 11.775 10.3042 11.9708 9.9125 12.3625C9.52083 12.7542 9.325 13.225 9.325 13.775C9.325 14.325 9.52083 14.7958 9.9125 15.1875C10.3042 15.5792 10.775 15.775 11.325 15.775C11.875 15.775 12.3458 15.5792 12.7375 15.1875ZM8.5 7.775H14.125L11.3 3.575L8.5 7.775Z" fill="currentColor"/>
</svg>
