<svg preserveAspectRatio="none" width="100%" height="100%" overflow="visible" style="display: block;" viewBox="0 0 24 18" fill="none" xmlns="http://www.w3.org/2000/svg">
<path id="Vector" d="M11.8 13.2L13.2 11.8L10 8.6V4H8V9.4L11.8 13.2ZM18 17.5V15.3C19.2333 14.7167 20.2083 13.8583 20.925 12.725C21.6417 11.5917 22 10.35 22 9C22 7.65 21.6417 6.40833 20.925 5.275C20.2083 4.14167 19.2333 3.28333 18 2.7V0.5C19.8167 1.13333 21.2708 2.22917 22.3625 3.7875C23.4542 5.34583 24 7.08333 24 9C24 10.9167 23.4542 12.6542 22.3625 14.2125C21.2708 15.7708 19.8167 16.8667 18 17.5ZM5.4875 17.2875C4.39583 16.8125 3.44583 16.1708 2.6375 15.3625C1.82917 14.5542 1.1875 13.6042 0.7125 12.5125C0.2375 11.4208 0 10.25 0 9C0 7.75 0.2375 6.57917 0.7125 5.4875C1.1875 4.39583 1.82917 3.44583 2.6375 2.6375C3.44583 1.82917 4.39583 1.1875 5.4875 0.7125C6.57917 0.2375 7.75 0 9 0C10.25 0 11.4208 0.2375 12.5125 0.7125C13.6042 1.1875 14.5542 1.82917 15.3625 2.6375C16.1708 3.44583 16.8125 4.39583 17.2875 5.4875C17.7625 6.57917 18 7.75 18 9C18 10.25 17.7625 11.4208 17.2875 12.5125C16.8125 13.6042 16.1708 14.5542 15.3625 15.3625C14.5542 16.1708 13.6042 16.8125 12.5125 17.2875C11.4208 17.7625 10.25 18 9 18C7.75 18 6.57917 17.7625 5.4875 17.2875Z" fill="currentColor"/>
</svg>
