<svg width="40" height="40" viewBox="0 0 40 40" fill="none" xmlns="http://www.w3.org/2000/svg">
<circle cx="20" cy="20" r="20" fill="#84172B"/>
<path fill-rule="evenodd" clip-rule="evenodd" d="M29.3763 12.5028C30.4096 12.7794 31.2216 13.5914 31.4982 14.6246C31.998 16.4955 32 20.4014 32 20.4014C32 20.4014 32 24.3072 31.4982 26.1781C31.2216 27.2114 30.4096 28.0234 29.3763 28.2999C27.5055 28.8018 20 28.8018 20 28.8018C20 28.8018 12.4946 28.8018 10.6236 28.2999C9.59039 28.0234 8.7784 27.2114 8.50181 26.1781C8 24.3072 8 20.4014 8 20.4014C8 20.4014 8 16.4955 8.50181 14.6246C8.7784 13.5914 9.59039 12.7794 10.6236 12.5028C12.4946 12.001 20 12.001 20 12.001C20 12.001 27.5055 12.001 29.3763 12.5028ZM23.8328 20.4014L17.5977 24.001V16.8018L23.8328 20.4014Z" fill="#FEF4F2"/>
</svg>
